<?xml version="1.0" encoding="utf-8"?>
<!-- Generator: Adobe Illustrator 22.0.0, SVG Export Plug-In . SVG Version: 6.00 Build 0)  -->
<svg version="1.1" id="Слой_1" xmlns="http://www.w3.org/2000/svg" xmlns:xlink="http://www.w3.org/1999/xlink" x="0px" y="0px"
	 viewBox="0 0 566 492" style="enable-background:new 0 0 566 492;" xml:space="preserve">
<style type="text/css">
	.st0{fill:#DD2A1B;}
</style>
<title>facade</title>
<g id="_4">
	<path class="st0" d="M20,422.9h-0.1v-3C19.8,420.9,19.9,421.9,20,422.9z"/>
	<path class="st0" d="M331.1,410.1v0.1H328c0.5,0,1-0.1,1.6-0.1H331.1z"/>
	<path class="st0" d="M331.1,421.4L331.1,421.4h-1C330.5,421.4,330.8,421.4,331.1,421.4z"/>
	<path class="st0" d="M331.1,410.1c-0.5,0-1.1,0-1.6,0H331.1v0.1H328c0.5,0,1-0.1,1.6-0.1H188.7v0.1h-2.7l-0.3,0
		c-0.4,0.1-0.9,0.2-1.3,0.3l0,0l-0.1,0.1l-50.6,25.7l-3.1,1.7c-2,1-2.8,3.3-1.9,5.3c0.4,0.8,1.1,1.5,1.9,1.9l1.7,0.8l52,25.6
		l3.2,1.6l1.3-2.5v3.1c24.8,0.1,49.7,0.1,74.5,0.1v-0.2h67.9v-0.9c17.3-0.3,31-14.6,30.7-31.8C361.5,424,347.9,410.4,331.1,410.1
		L331.1,410.1z M184.3,459l-35.7-17.6l35.7-18.1V459z M319.8,462.4H195.6v-14.8h124.2V462.4z M319.8,436.3H195.6v-14.8h124.2V436.3z
		 M349.3,449.7c-0.2,0.9-0.5,1.9-1,2.7c-0.6,0.9-1.4,1.8-2.4,2.4l0,0c-3.8,4.2-9.1,6.5-14.8,6.5v-39.9h-1c0.3,0,0.7,0,1,0
		c5.9,0,11.5,2.6,15.3,7.2c0.7,0.6,1.3,1.3,1.8,2c0.5,0.8,0.8,1.6,1,2.5c2.4,5.3,2.4,11.4,0,16.7L349.3,449.7z"/>
	<path class="st0" d="M263.2,473.8h-74.5v-0.1C213.6,473.8,238.4,473.8,263.2,473.8z"/>
	<rect x="263.2" y="473.5" class="st0" width="67.9" height="0.2"/>
	<path class="st0" d="M62.6,69.3L62.6,69.3z"/>
	<path class="st0" d="M392.9,3.2h-11.3v66.1H62C38.6,69.6,19.9,88.6,19.8,112v307.9c0,1,0,2,0.1,3c1.6,22.4,20.2,39.7,42.7,39.7l0,0
		h11.3v-74.3h319c23.6,0,42.7-19.2,42.8-42.8V46C435.7,22.4,416.5,3.2,392.9,3.2z M62.6,451.4c-17.4,0-31.5-14.1-31.5-31.5
		s14.1-31.5,31.5-31.5V451.4z M392.9,377.1H62.6c-12,0-23.4,5-31.5,13.8V112c0-17.4,14.1-31.4,31.5-31.4h319v233.5h11.3v0.1
		c17.4,0,31.5,14.1,31.5,31.5S410.3,377.1,392.9,377.1L392.9,377.1z M424.4,316.7c-8.1-8.8-19.5-13.8-31.5-13.8V14.5
		c17.4,0,31.5,14.1,31.5,31.5V316.7z"/>
	<path class="st0" d="M338.4,334.3v-211H335v-0.2H163.9v11.3h32.3v52.4h11.3v-52.4h119.6v99.9h-56.6v-62.7h-11.3v62.7h-31.4v11.3
		h99.3v88.7H305v-69.2h-77.2v69.2h-20.3V220.7h-11.3v113.7H94.8v-72.9h45.8v-11.3H94.8V134.4h36.5v-11.3H83.5v222.5h255.3v-11.3
		L338.4,334.3z M293.7,334.3h-54.7v-57.9h54.7V334.3z"/>
	<path class="st0" d="M453.5,88.3v297.8H545V88.3H453.5z M533.8,374.8h-68.9v-13.9h33.3v-11.3h-33.3v-21.2h16.7v-11.3h-16.7v-21.7
		h33.3v-11.3h-33.3v-21.2h16.7v-11.3h-16.7v-18.7h30.5v-11.3h-30.5v-21.2h13.9v-11.3h-13.9v-21.2h32.8v-11.3h-32.8v-20.7h17.4v-11.3
		h-17.4v-25h68.9V374.8z"/>
	<path class="st0" d="M331.1,421.4L331.1,421.4h-1C330.5,421.4,330.8,421.4,331.1,421.4z"/>
	<polygon class="st0" points="331.1,473.5 331.6,472.6 319.8,473.6 319.8,473.5 	"/>
	<path class="st0" d="M186.1,410.3l-0.3,0c-0.4,0.1-0.9,0.2-1.3,0.3l0,0l-0.1,0.1v-0.5L186.1,410.3z"/>
	<polygon class="st0" points="188.7,470.6 188.7,473.6 184.9,472.1 184.3,471.6 187.5,473.2 	"/>
	<path class="st0" d="M185.8,410.3c-0.4,0.1-0.9,0.2-1.3,0.3l0.8-0.4l0.4-0.2L185.8,410.3L185.8,410.3z"/>
	<path class="st0" d="M345.9,454.8c0.9-0.7,1.8-1.5,2.4-2.4c0.5-0.8,0.8-1.7,1-2.7C348.4,451.6,347.3,453.3,345.9,454.8z
		 M348.3,430.6c-0.5-0.7-1.1-1.4-1.8-2c1.1,1.3,2.1,2.8,2.8,4.4C349.1,432.1,348.8,431.3,348.3,430.6L348.3,430.6z M329.5,410.1
		c-0.5,0-1.1,0.1-1.6,0.1h3.2v-0.1H329.5z"/>
</g>
</svg>
