<?xml version="1.0" encoding="utf-8"?>
<!-- Generator: Adobe Illustrator 22.0.0, SVG Export Plug-In . SVG Version: 6.00 Build 0)  -->
<svg version="1.1" id="Слой_1" xmlns="http://www.w3.org/2000/svg" xmlns:xlink="http://www.w3.org/1999/xlink" x="0px" y="0px"
	 viewBox="0 0 567 523.5" style="enable-background:new 0 0 567 523.5;" xml:space="preserve">
<style type="text/css">
	.st0{fill:#DD2A1B;}
</style>
<title>facade</title>
<g id="_2">
	<polygon class="st0" points="368.3,198.8 359,208 283.4,132.4 207.6,208.2 198.4,199 283.5,113.9 	"/>
	<rect x="235.6" y="39.1" class="st0" width="191.8" height="11.2"/>
	<rect x="155.9" y="344.4" class="st0" width="111" height="11.2"/>
	<polygon class="st0" points="371.1,224.8 371.1,307 302.4,307 302.4,236 263.1,236 263.1,307 194.4,307 194.4,224.8 205.6,224.8 
		205.6,295.8 251.9,295.8 251.9,224.8 313.6,224.8 313.6,295.8 359.9,295.8 359.9,224.8 	"/>
	<rect x="155.9" y="376.4" class="st0" width="111" height="11.2"/>
	<rect x="155.9" y="408.4" class="st0" width="111" height="11.2"/>
	<rect x="155.9" y="440.4" class="st0" width="111" height="11.2"/>
	<rect x="300.1" y="344.4" class="st0" width="111" height="11.2"/>
	<rect x="300.1" y="376.4" class="st0" width="111" height="11.2"/>
	<rect x="300.1" y="408.4" class="st0" width="111" height="11.2"/>
	<rect x="300.1" y="440.4" class="st0" width="111" height="11.2"/>
	<path class="st0" d="M65.6,512.9h-1.5l0,0H65.6z"/>
	<path class="st0" d="M501.9,512.9L501.9,512.9H501C501.3,512.9,501.6,512.9,501.9,512.9z"/>
	<path class="st0" d="M539,475.6V470h-45.1V227.8h-0.6c-2.6-18.5-14.2-29-33.5-30V4.4H107.9v193.3c-21.2,0-34,10.6-36.7,30.1h-0.6
		V470H27v11.2h0.5c2,20,14.8,31.2,36.6,31.6h1.5H501c0.3,0,0.6,0,0.9,0c24.2-0.3,37.5-13.5,37.5-37.3L539,475.6z M459.8,209
		c15.6,1,22.9,9.7,22.9,27.1V470h-22.9V209z M119.1,15.6h329.5v58H119.1V15.6z M119.1,84.8h329.5V470H119.1V84.8z M107.9,208.9V470
		H81.8V236.1C81.8,217.6,90.1,208.9,107.9,208.9z M501.9,501.7H64.8c-15.9-0.2-24.3-6.8-26-20.5h489.1
		C526.2,494.9,517.8,501.5,501.9,501.7L501.9,501.7z"/>
	<rect x="140" y="39" class="st0" width="14.6" height="11.2"/>
	<rect x="172" y="39.1" class="st0" width="14.6" height="11.2"/>
	<rect x="204" y="38.9" class="st0" width="14.6" height="11.2"/>
</g>
</svg>
