<?xml version="1.0" encoding="utf-8"?>
<!-- Generator: Adobe Illustrator 22.0.0, SVG Export Plug-In . SVG Version: 6.00 Build 0)  -->
<svg version="1.1" id="_1" xmlns="http://www.w3.org/2000/svg" xmlns:xlink="http://www.w3.org/1999/xlink" x="0px" y="0px"
	 viewBox="0 0 588.5 509.5" style="enable-background:new 0 0 588.5 509.5;" xml:space="preserve">
<style type="text/css">
	.st0{fill:#DD2A1B;}
</style>
<title>facade</title>
<path class="st0" d="M37,76.5c44.1-0.1,88.3-0.1,132.4-0.1c99.9,0,199.8,0,299.8,0c1.5,0,2.9-0.1,4.8-0.2V9.9
	c17.5-1.3,34.5-3.4,50.6,5.1c11.4,6,18.9,15.3,24.4,26.6v396c-0.4,0.4-0.8,0.9-1.1,1.5c-10.8,25.7-30.3,38.3-58.1,38.3
	c-116,0-231.9,0-347.9,0c-35,0-70,0.1-104.9,0.2L37,76.5z M47.4,464.6h14.7c143.3,0,286.6,0,429.9,0c11.8,0.2,23.2-4.1,32-12
	c15.4-13.6,20.3-35.6,12.1-53.6c-8.6-18.9-28-29.5-49-26.6c-3.7,0.5-7.4,1.4-11.8,2.2c-0.5-4.7-1.2-9-1.2-13.2
	c-0.1-88.7-0.1-177.3,0-265.9v-7.7H47.4V464.6z M539.6,382.4v-6.9c0-104.7,0-209.3,0-314c0.1-4-0.3-8-1.1-11.9
	c-5.4-22.6-27-32.6-53-28.4V361C507.5,359.4,518.4,363.6,539.6,382.4z"/>
<path class="st0" d="M237.9,123.8v65.7h218.8v-65.7H237.9z M445.5,178.3H249.1V135h196.4V178.3z"/>
<path class="st0" d="M237.9,243.3V309h218.8v-65.7H237.9z M445.5,297.8H249.1v-43.3h196.4V297.8z"/>
<path class="st0" d="M237.9,362.9v65.7h218.8v-65.7H237.9z M445.5,417.4H249.1v-43.3h196.4V417.4z"/>
<path class="st0" d="M65.9,104.2v104.9h150.2V104.2H65.9z M204.9,197.9H77.1v-82.5h127.7L204.9,197.9z"/>
<path class="st0" d="M65.9,343.2v104.9h150.2V343.2H65.9z M204.9,437H77.1v-82.5h127.7L204.9,437z"/>
<path class="st0" d="M65.9,223.7v104.9h150.2V223.7H65.9z M204.9,317.4H77.1v-82.5h127.7L204.9,317.4z"/>
</svg>
